<?xml version="1.0" encoding="UTF-8" standalone="no"?>
<svg width="193.524mm" height="96.7619mm"
 viewBox="0.5 0.5 640 320"
 xmlns="http://www.w3.org/2000/svg" xmlns:xlink="http://www.w3.org/1999/xlink"  version="1.2" baseProfile="tiny">
<title>QM diagram</title>
<desc>QM diagram</desc>
<defs>
</defs>
<g fill="none" stroke="black" stroke-width="1" fill-rule="evenodd" stroke-linecap="square" stroke-linejoin="bevel" >

<g fill="none" stroke="#000000" stroke-opacity="1" stroke-width="1" stroke-linecap="square" stroke-linejoin="bevel" transform="matrix(1,0,0,1,0,0)"
font-family="MS Shell Dlg 2" font-size="9.33333" font-weight="400" font-style="normal" 
>
</g>

<g fill="none" stroke="#000000" stroke-opacity="1" stroke-width="1" stroke-linecap="square" stroke-linejoin="bevel" transform="matrix(1,0,0,1,32,48)"
font-family="MS Shell Dlg 2" font-size="9.33333" font-weight="400" font-style="normal" 
>
</g>

<g fill="#e0e0ff" fill-opacity="0.501961" stroke="#00008b" stroke-opacity="1" stroke-width="1" stroke-linecap="butt" stroke-linejoin="round" transform="matrix(1,0,0,1,32,48)"
font-family="Arial" font-size="12" font-weight="400" font-style="normal" 
>
<path vector-effect="none" fill-rule="evenodd" d="M0.5,14.5 C0.5,6.76801 6.76801,0.5 14.5,0.5 L562.5,0.5 C570.232,0.5 576.5,6.76801 576.5,14.5 L576.5,226.5 C576.5,234.232 570.232,240.5 562.5,240.5 L14.5,240.5 C6.76801,240.5 0.5,234.232 0.5,226.5 L0.5,14.5"/>
<polyline fill="none" vector-effect="none" points="0.5,16.5 576.5,16.5 " />
<text fill="#00008b" fill-opacity="1" stroke="none" xml:space="preserve" x="266.156" y="10.8594" font-family="Arial" font-size="12" font-weight="400" font-style="normal" 
 >Running</text>
<text fill="#00008b" fill-opacity="1" stroke="none" xml:space="preserve" x="10.5" y="27.3594" font-family="Arial" font-size="12" font-weight="400" font-style="normal" 
 >e / EnableRTCCInterrupt();</text>
<text fill="#00008b" fill-opacity="1" stroke="none" xml:space="preserve" x="10.5" y="43.3594" font-family="Arial" font-size="12" font-weight="400" font-style="normal" 
 >x / DisableRTCCInterrupt();</text>
</g>

<g fill="none" stroke="#000000" stroke-opacity="1" stroke-width="1" stroke-linecap="square" stroke-linejoin="bevel" transform="matrix(1,0,0,1,32,48)"
font-family="MS Shell Dlg 2" font-size="9.33333" font-weight="400" font-style="normal" 
>
</g>

<g fill="none" stroke="#000000" stroke-opacity="1" stroke-width="1" stroke-linecap="square" stroke-linejoin="bevel" transform="matrix(1,0,0,1,32,16)"
font-family="MS Shell Dlg 2" font-size="9.33333" font-weight="400" font-style="normal" 
>
</g>

<g fill="none" stroke="#8b0000" stroke-opacity="1" stroke-width="1" stroke-linecap="square" stroke-linejoin="round" transform="matrix(1,0,0,1,32,16)"
font-family="MS Shell Dlg 2" font-size="9.33333" font-weight="400" font-style="normal" 
>
<polyline fill="none" vector-effect="none" points="0.5,0.5 48.5,0.5 " />
<polyline fill="none" vector-effect="none" points="48.5,0.5 48.5,32.5 " />
</g>

<g fill="#8b0000" fill-opacity="1" stroke="#8b0000" stroke-opacity="1" stroke-width="1" stroke-linecap="square" stroke-linejoin="round" transform="matrix(1,0,0,1,32,16)"
font-family="Arial" font-size="12" font-weight="400" font-style="normal" 
>
<circle cx="0.5" cy="0.5" r="4"/>
</g>

<g fill="none" stroke="#8b0000" stroke-opacity="1" stroke-width="1" stroke-linecap="square" stroke-linejoin="round" transform="matrix(1,0,0,1,32,16)"
font-family="Arial" font-size="12" font-weight="400" font-style="normal" 
>
<polyline fill="none" vector-effect="none" points="44.5,24.5 48.5,32.5 52.5,24.5 " />
<text fill="#8b0000" fill-opacity="1" stroke="none" xml:space="preserve" x="2.5" y="-4.64062" font-family="Arial" font-size="12" font-weight="400" font-style="normal" 
 > / Init();</text>
</g>

<g fill="none" stroke="#000000" stroke-opacity="1" stroke-width="1" stroke-linecap="square" stroke-linejoin="bevel" transform="matrix(1,0,0,1,32,16)"
font-family="MS Shell Dlg 2" font-size="9.33333" font-weight="400" font-style="normal" 
>
</g>

<g fill="none" stroke="#000000" stroke-opacity="1" stroke-width="1" stroke-linecap="square" stroke-linejoin="bevel" transform="matrix(1,0,0,1,560,48)"
font-family="MS Shell Dlg 2" font-size="9.33333" font-weight="400" font-style="normal" 
>
</g>

<g fill="none" stroke="#8b0000" stroke-opacity="1" stroke-width="1" stroke-linecap="square" stroke-linejoin="round" transform="matrix(1,0,0,1,560,48)"
font-family="MS Shell Dlg 2" font-size="9.33333" font-weight="400" font-style="normal" 
>
<polyline fill="none" vector-effect="none" points="0.5,0.5 0.5,-31.5 " />
<polyline fill="none" vector-effect="none" points="0.5,-31.5 48.5,-31.5 " />
</g>

<g fill="#ffffff" fill-opacity="1" stroke="#8b0000" stroke-opacity="1" stroke-width="1" stroke-linecap="square" stroke-linejoin="round" transform="matrix(1,0,0,1,560,48)"
font-family="Arial" font-size="12" font-weight="400" font-style="normal" 
>
<rect x="44.5" y="-35.5" width="8" height="8"/>
<text fill="#8b0000" fill-opacity="1" stroke="none" xml:space="preserve" x="2.5" y="-4.64062" font-family="Arial" font-size="12" font-weight="400" font-style="normal" 
 >TERMINATE</text>
</g>

<g fill="none" stroke="#000000" stroke-opacity="1" stroke-width="1" stroke-linecap="square" stroke-linejoin="bevel" transform="matrix(1,0,0,1,560,48)"
font-family="MS Shell Dlg 2" font-size="9.33333" font-weight="400" font-style="normal" 
>
</g>

<g fill="none" stroke="#000000" stroke-opacity="1" stroke-width="1" stroke-linecap="square" stroke-linejoin="bevel" transform="matrix(1,0,0,1,32,128)"
font-family="MS Shell Dlg 2" font-size="9.33333" font-weight="400" font-style="normal" 
>
</g>

<g fill="none" stroke="#8b0000" stroke-opacity="1" stroke-width="1" stroke-linecap="square" stroke-linejoin="round" transform="matrix(1,0,0,1,32,128)"
font-family="MS Shell Dlg 2" font-size="9.33333" font-weight="400" font-style="normal" 
>
<polyline fill="none" vector-effect="none" points="0.5,0.5 320.5,0.5 " />
</g>

<g fill="#ffffff" fill-opacity="1" stroke="#8b0000" stroke-opacity="1" stroke-width="1" stroke-linecap="square" stroke-linejoin="round" transform="matrix(1,0,0,1,32,128)"
font-family="Arial" font-size="12" font-weight="400" font-style="normal" 
>
<rect x="316.5" y="-3.5" width="8" height="8"/>
<text fill="#8b0000" fill-opacity="1" stroke="none" xml:space="preserve" x="2.5" y="-4.64062" font-family="Arial" font-size="12" font-weight="400" font-style="normal" 
 >RTCC_SET_TIME / SetTime(Time const &amp;aTime);</text>
</g>

<g fill="none" stroke="#000000" stroke-opacity="1" stroke-width="1" stroke-linecap="square" stroke-linejoin="bevel" transform="matrix(1,0,0,1,32,128)"
font-family="MS Shell Dlg 2" font-size="9.33333" font-weight="400" font-style="normal" 
>
</g>

<g fill="none" stroke="#000000" stroke-opacity="1" stroke-width="1" stroke-linecap="square" stroke-linejoin="bevel" transform="matrix(1,0,0,1,32,160)"
font-family="MS Shell Dlg 2" font-size="9.33333" font-weight="400" font-style="normal" 
>
</g>

<g fill="none" stroke="#8b0000" stroke-opacity="1" stroke-width="1" stroke-linecap="square" stroke-linejoin="round" transform="matrix(1,0,0,1,32,160)"
font-family="MS Shell Dlg 2" font-size="9.33333" font-weight="400" font-style="normal" 
>
<polyline fill="none" vector-effect="none" points="0.5,0.5 320.5,0.5 " />
</g>

<g fill="#ffffff" fill-opacity="1" stroke="#8b0000" stroke-opacity="1" stroke-width="1" stroke-linecap="square" stroke-linejoin="round" transform="matrix(1,0,0,1,32,160)"
font-family="Arial" font-size="12" font-weight="400" font-style="normal" 
>
<rect x="316.5" y="-3.5" width="8" height="8"/>
<text fill="#8b0000" fill-opacity="1" stroke="none" xml:space="preserve" x="2.5" y="-4.64062" font-family="Arial" font-size="12" font-weight="400" font-style="normal" 
 >RTCC_SET_DATE / SetDate(Date const aDate);</text>
</g>

<g fill="none" stroke="#000000" stroke-opacity="1" stroke-width="1" stroke-linecap="square" stroke-linejoin="bevel" transform="matrix(1,0,0,1,32,160)"
font-family="MS Shell Dlg 2" font-size="9.33333" font-weight="400" font-style="normal" 
>
</g>

<g fill="none" stroke="#000000" stroke-opacity="1" stroke-width="1" stroke-linecap="square" stroke-linejoin="bevel" transform="matrix(1,0,0,1,352,192)"
font-family="MS Shell Dlg 2" font-size="9.33333" font-weight="400" font-style="normal" 
>
</g>

<g fill="none" stroke="#8b0000" stroke-opacity="1" stroke-width="1" stroke-linecap="square" stroke-linejoin="round" transform="matrix(1,0,0,1,352,192)"
font-family="MS Shell Dlg 2" font-size="9.33333" font-weight="400" font-style="normal" 
>
<polyline fill="none" vector-effect="none" points="0.5,0.5 224.5,0.5 " />
</g>

<g fill="#ffffff" fill-opacity="1" stroke="#8b0000" stroke-opacity="1" stroke-width="1" stroke-linecap="square" stroke-linejoin="round" transform="matrix(1,0,0,1,352,192)"
font-family="Arial" font-size="12" font-weight="400" font-style="normal" 
>
<path vector-effect="none" fill-rule="evenodd" d="M-7.5,0.5 L0.5,-7.5 L8.5,0.5 L0.5,8.5 L-7.5,0.5"/>
<rect x="220.5" y="-3.5" width="8" height="8"/>
<text fill="#8b0000" fill-opacity="1" stroke="none" xml:space="preserve" x="10.5" y="11.3594" font-family="Arial" font-size="12" font-weight="400" font-style="normal" 
 >[Source==CalendarAlarm] /</text>
<text fill="#8b0000" fill-opacity="1" stroke="none" xml:space="preserve" x="10.5" y="25.3594" font-family="Arial" font-size="12" font-weight="400" font-style="normal" 
 >PublishCalendarEvent();</text>
</g>

<g fill="none" stroke="#000000" stroke-opacity="1" stroke-width="1" stroke-linecap="square" stroke-linejoin="bevel" transform="matrix(1,0,0,1,352,192)"
font-family="MS Shell Dlg 2" font-size="9.33333" font-weight="400" font-style="normal" 
>
</g>

<g fill="none" stroke="#000000" stroke-opacity="1" stroke-width="1" stroke-linecap="square" stroke-linejoin="bevel" transform="matrix(1,0,0,1,32,192)"
font-family="MS Shell Dlg 2" font-size="9.33333" font-weight="400" font-style="normal" 
>
</g>

<g fill="none" stroke="#8b0000" stroke-opacity="1" stroke-width="1" stroke-linecap="square" stroke-linejoin="round" transform="matrix(1,0,0,1,32,192)"
font-family="MS Shell Dlg 2" font-size="9.33333" font-weight="400" font-style="normal" 
>
<polyline fill="none" vector-effect="none" points="0.5,0.5 320.5,0.5 " />
</g>

<g fill="#ffffff" fill-opacity="1" stroke="#8b0000" stroke-opacity="1" stroke-width="1" stroke-linecap="square" stroke-linejoin="round" transform="matrix(1,0,0,1,32,192)"
font-family="Arial" font-size="12" font-weight="400" font-style="normal" 
>
<path vector-effect="none" fill-rule="evenodd" d="M312.5,0.5 L320.5,-7.5 L328.5,0.5 L320.5,8.5 L312.5,0.5"/>
</g>

<g fill="none" stroke="#8b0000" stroke-opacity="1" stroke-width="1" stroke-linecap="square" stroke-linejoin="round" transform="matrix(1,0,0,1,32,192)"
font-family="Arial" font-size="12" font-weight="400" font-style="normal" 
>
<polyline fill="none" vector-effect="none" points="304.5,-3.5 312.5,0.5 304.5,4.5 " />
<text fill="#8b0000" fill-opacity="1" stroke="none" xml:space="preserve" x="2.5" y="-4.64062" font-family="Arial" font-size="12" font-weight="400" font-style="normal" 
 >RTCC_INTERRUPT / ReadTimeAndTemp();</text>
<text fill="#8b0000" fill-opacity="1" stroke="none" xml:space="preserve" x="2.5" y="9.35938" font-family="Arial" font-size="12" font-weight="400" font-style="normal" 
 >PublishTick();</text>
</g>

<g fill="none" stroke="#000000" stroke-opacity="1" stroke-width="1" stroke-linecap="square" stroke-linejoin="bevel" transform="matrix(1,0,0,1,32,192)"
font-family="MS Shell Dlg 2" font-size="9.33333" font-weight="400" font-style="normal" 
>
</g>

<g fill="none" stroke="#000000" stroke-opacity="1" stroke-width="1" stroke-linecap="square" stroke-linejoin="bevel" transform="matrix(1,0,0,1,352,240)"
font-family="MS Shell Dlg 2" font-size="9.33333" font-weight="400" font-style="normal" 
>
</g>

<g fill="none" stroke="#8b0000" stroke-opacity="1" stroke-width="1" stroke-linecap="square" stroke-linejoin="round" transform="matrix(1,0,0,1,352,240)"
font-family="MS Shell Dlg 2" font-size="9.33333" font-weight="400" font-style="normal" 
>
<polyline fill="none" vector-effect="none" points="0.5,0.5 224.5,0.5 " />
</g>

<g fill="#ffffff" fill-opacity="1" stroke="#8b0000" stroke-opacity="1" stroke-width="1" stroke-linecap="square" stroke-linejoin="round" transform="matrix(1,0,0,1,352,240)"
font-family="Arial" font-size="12" font-weight="400" font-style="normal" 
>
<path vector-effect="none" fill-rule="evenodd" d="M-7.5,0.5 L0.5,-7.5 L8.5,0.5 L0.5,8.5 L-7.5,0.5"/>
<rect x="220.5" y="-3.5" width="8" height="8"/>
<text fill="#8b0000" fill-opacity="1" stroke="none" xml:space="preserve" x="10.5" y="11.3594" font-family="Arial" font-size="12" font-weight="400" font-style="normal" 
 >[CalendarChanged==true] /</text>
<text fill="#8b0000" fill-opacity="1" stroke="none" xml:space="preserve" x="10.5" y="25.3594" font-family="Arial" font-size="12" font-weight="400" font-style="normal" 
 >WriteToNvMemory();</text>
</g>

<g fill="none" stroke="#000000" stroke-opacity="1" stroke-width="1" stroke-linecap="square" stroke-linejoin="bevel" transform="matrix(1,0,0,1,352,240)"
font-family="MS Shell Dlg 2" font-size="9.33333" font-weight="400" font-style="normal" 
>
</g>

<g fill="none" stroke="#000000" stroke-opacity="1" stroke-width="1" stroke-linecap="square" stroke-linejoin="bevel" transform="matrix(1,0,0,1,32,240)"
font-family="MS Shell Dlg 2" font-size="9.33333" font-weight="400" font-style="normal" 
>
</g>

<g fill="none" stroke="#8b0000" stroke-opacity="1" stroke-width="1" stroke-linecap="square" stroke-linejoin="round" transform="matrix(1,0,0,1,32,240)"
font-family="MS Shell Dlg 2" font-size="9.33333" font-weight="400" font-style="normal" 
>
<polyline fill="none" vector-effect="none" points="0.5,0.5 320.5,0.5 " />
</g>

<g fill="#ffffff" fill-opacity="1" stroke="#8b0000" stroke-opacity="1" stroke-width="1" stroke-linecap="square" stroke-linejoin="round" transform="matrix(1,0,0,1,32,240)"
font-family="Arial" font-size="12" font-weight="400" font-style="normal" 
>
<path vector-effect="none" fill-rule="evenodd" d="M312.5,0.5 L320.5,-7.5 L328.5,0.5 L320.5,8.5 L312.5,0.5"/>
</g>

<g fill="none" stroke="#8b0000" stroke-opacity="1" stroke-width="1" stroke-linecap="square" stroke-linejoin="round" transform="matrix(1,0,0,1,32,240)"
font-family="Arial" font-size="12" font-weight="400" font-style="normal" 
>
<polyline fill="none" vector-effect="none" points="304.5,-3.5 312.5,0.5 304.5,4.5 " />
</g>

<g fill="none" stroke="#8b0000" stroke-opacity="1" stroke-width="1" stroke-linecap="square" stroke-linejoin="round" transform="matrix(1,0,0,1,32,240)"
font-family="Arial" font-size="12" font-weight="400" font-style="normal" 
>
<text fill="#8b0000" fill-opacity="1" stroke="none" xml:space="preserve" x="2.5" y="-4.64062" font-family="Arial" font-size="12" font-weight="400" font-style="normal" 
 >RTCC_SAVE_TO_NV_MEMORY /</text>
<text fill="#8b0000" fill-opacity="1" stroke="none" xml:space="preserve" x="2.5" y="9.35938" font-family="Arial" font-size="12" font-weight="400" font-style="normal" 
 >  RTCC::Event::SaveToRAM const * const</text>
</g>

<g fill="none" stroke="#8b0000" stroke-opacity="1" stroke-width="1" stroke-linecap="square" stroke-linejoin="round" transform="matrix(1,0,0,1,32,240)"
font-family="Arial" font-size="12" font-weight="400" font-style="normal" 
>
</g>

<g fill="none" stroke="#8b0000" stroke-opacity="1" stroke-width="1" stroke-linecap="square" stroke-linejoin="round" transform="matrix(1,0,0,1,0,0)"
font-family="Arial" font-size="12" font-weight="400" font-style="normal" 
>
</g>

<g fill="none" stroke="#8b0000" stroke-opacity="1" stroke-width="1" stroke-linecap="square" stroke-linejoin="round" transform="matrix(1,0,0,1,32,240)"
font-family="Arial" font-size="12" font-weight="400" font-style="normal" 
>
</g>

<g fill="none" stroke="#000000" stroke-opacity="1" stroke-width="1" stroke-linecap="square" stroke-linejoin="bevel" transform="matrix(1,0,0,1,32,240)"
font-family="MS Shell Dlg 2" font-size="9.33333" font-weight="400" font-style="normal" 
>
</g>

<g fill="none" stroke="#000000" stroke-opacity="1" stroke-width="1" stroke-linecap="square" stroke-linejoin="bevel" transform="matrix(1,0,0,1,0,0)"
font-family="MS Shell Dlg 2" font-size="9.33333" font-weight="400" font-style="normal" 
>
</g>
</g>
</svg>
